# xmcd
#
# Track frame offsets: 
#        150
#        9157
#        27991
#        46840
#        61213
#        78937
#        96051
#        119762
#        143925
#        162007
#        182409
#
# Disc length: 2826 seconds
#
# Revision: 0
# Processed by: cddbd v1.5PL3 Copyright (c) Steve Scherf et al.
# Submitted via: ExactAudioCopy v0.95a3
#
DISCID=7f0b080b
DTITLE=Drippin´Honey - Senorita, Sprechen Sie Love=
DYEAR=1900
DGENRE=Blues
TTITLE0=Senorita
TTITLE1=My Words, My Eyes
TTITLE2=Few and Far Between
TTITLE3=What a Day
TTITLE4=Rubber Band
TTITLE5=ll I Got
TTITLE6=Lovesymbol
TTITLE7=You Don´t Have To Cry
TTITLE8=Sapphire
TTITLE9=I Beieve To My Soul
TTITLE10=My Father´s Son
EXTD=
EXTT0=
EXTT1=
EXTT2=
EXTT3=
EXTT4=
EXTT5=
EXTT6=
EXTT7=
EXTT8=
EXTT9=
EXTT10=
PLAYORDER=
